<?xml version="1.0" standalone="no"?>
<!DOCTYPE svg PUBLIC "-//W3C//DTD SVG 20010904//EN"
 "http://www.w3.org/TR/2001/REC-SVG-20010904/DTD/svg10.dtd">
<svg version="1.0" xmlns="http://www.w3.org/2000/svg"
 width="1024.000000pt" height="1024.000000pt" viewBox="0 0 1024.000000 1024.000000"
 preserveAspectRatio="xMidYMid meet">

<g transform="translate(0.000000,1024.000000) scale(0.100000,-0.100000)"
fill="#000000" stroke="none">
<path d="M4835 9213 c-290 -20 -649 -92 -950 -190 -622 -203 -1135 -512 -1599
-963 -782 -761 -1202 -1711 -1232 -2790 -24 -817 191 -1608 613 -2262 354
-550 864 -1036 1423 -1358 938 -540 1986 -692 3011 -435 478 120 1003 363
1393 646 964 701 1534 1650 1682 2798 33 263 33 718 0 983 -60 478 -174 861
-381 1283 -274 560 -671 1048 -1175 1447 -584 462 -1348 763 -2110 833 -149
13 -529 18 -675 8z m413 -336 c3 -23 0 -27 -22 -27 -28 0 -37 17 -24 43 14 27
42 17 46 -16z m-289 9 c17 -20 3 -46 -25 -46 -18 0 -24 5 -24 23 0 38 26 50
49 23z m591 -30 c0 -24 -23 -41 -41 -30 -5 3 -9 16 -9 30 0 19 5 24 25 24 20
0 25 -5 25 -24z m-1000 0 c28 -35 -11 -93 -47 -70 -36 22 -23 84 17 84 10 0
23 -7 30 -14z m1334 -28 c15 -25 -3 -52 -37 -56 -21 -3 -28 2 -33 22 -12 49
43 76 70 34z m-1634 -53 c10 -12 10 -18 0 -30 -24 -29 -58 -7 -44 30 4 8 12
15 19 15 7 0 18 -7 25 -15z m1925 -35 c0 -16 -6 -26 -18 -28 -19 -4 -32 20
-23 44 9 25 41 13 41 -16z m-2215 -45 c16 -20 5 -45 -20 -45 -14 0 -20 7 -20
23 0 38 18 48 40 22z m2513 -47 c7 -23 -5 -48 -24 -48 -23 0 -32 15 -24 40 7
22 41 27 48 8z m-2796 -74 c3 -8 -2 -23 -11 -32 -16 -16 -18 -16 -31 1 -7 11
-11 25 -8 33 7 19 42 18 50 -2z m3087 -23 c21 -24 18 -49 -9 -67 -17 -11 -24
-9 -50 11 l-29 24 24 26 c28 30 41 31 64 6z m-3384 -43 c0 -26 36 -58 65 -58
39 0 30 -25 -14 -39 -33 -9 -40 -17 -48 -48 -11 -48 -29 -53 -37 -9 -8 40 -22
54 -65 62 -39 8 -36 24 9 39 35 12 43 21 61 70 8 23 12 26 19 15 6 -8 10 -23
10 -32z m1999 31 c803 -57 1586 -442 2216 -1090 72 -74 164 -177 204 -229 209
-269 381 -593 501 -943 31 -90 35 -113 26 -133 -12 -26 -21 -30 -31 -13 -5 7
-16 3 -31 -12 l-23 -22 -11 27 c-5 15 -10 31 -10 35 0 13 -87 237 -129 332
-79 179 -216 415 -345 594 -137 191 -401 451 -658 648 -494 378 -1050 610
-1608 672 -156 17 -521 20 -655 5 -536 -60 -1042 -251 -1520 -574 -327 -220
-617 -507 -837 -826 -311 -450 -499 -955 -564 -1512 -20 -170 -14 -608 9 -773
85 -590 234 -985 530 -1409 130 -185 195 -264 342 -415 364 -373 778 -654
1202 -816 65 -25 126 -50 135 -55 10 -6 25 -10 33 -10 10 0 13 -5 9 -12 -5 -8
-2 -9 9 -5 9 3 49 -4 89 -16 67 -20 70 -22 43 -28 -16 -4 -39 -7 -50 -7 -16 0
-15 2 5 8 19 7 10 8 -31 7 -41 -1 -55 -5 -52 -14 3 -7 0 -13 -6 -13 -6 0 -11
-5 -11 -11 0 -7 17 -10 44 -8 24 2 42 1 40 -3 -2 -4 4 -9 13 -11 10 -2 -2 -3
-27 -1 l-45 4 31 -14 c17 -7 50 -17 72 -21 23 -4 40 -10 37 -15 -7 -12 -171
34 -323 91 -75 28 -141 54 -147 58 -5 4 -37 18 -70 31 -160 63 -411 207 -594
342 -481 355 -854 786 -1095 1265 -161 319 -250 619 -313 1053 -26 180 -26
733 0 900 132 846 499 1532 1106 2072 240 213 477 371 786 524 563 277 1104
387 1704 343z m26 -214 c173 -15 385 -51 385 -66 0 -4 -17 -20 -37 -34 -507
-354 -707 -522 -1398 -1169 -544 -509 -778 -747 -1125 -1141 -63 -71 -119
-133 -125 -138 -5 -4 -107 -5 -225 -2 -338 7 -448 8 -457 2 -4 -2 -91 -4 -193
-3 l-185 1 3 30 c6 52 61 255 107 397 80 246 179 446 340 688 258 389 554 682
945 934 324 210 696 366 1058 445 305 67 588 84 907 56z m1849 -50 c7 -36 30
-55 65 -55 31 0 25 -29 -6 -36 -16 -3 -33 -7 -40 -9 -6 -2 -14 -22 -18 -44 -8
-46 -35 -58 -35 -15 0 40 -17 61 -55 68 -44 9 -41 25 5 41 24 8 36 20 43 41 5
16 10 35 13 42 7 22 21 5 28 -33z m-4126 -12 c13 -26 4 -43 -24 -43 -18 0 -24
5 -24 23 0 40 32 52 48 20z m2901 -68 c44 -14 83 -30 86 -34 3 -5 -19 -24 -47
-42 -29 -19 -83 -59 -120 -91 -38 -31 -91 -64 -118 -74 -69 -25 -68 -48 8
-111 31 -26 96 -83 144 -126 76 -69 91 -78 120 -75 23 2 37 11 48 31 l15 28
-104 97 -103 97 40 33 41 32 93 -82 c52 -46 111 -97 133 -114 l39 -32 -44 -57
c-49 -64 -162 -155 -192 -155 -11 0 -17 -4 -13 -9 3 -5 -18 -29 -47 -53 -162
-135 -206 -194 -247 -336 -25 -83 -23 -83 -111 -3 l-55 50 72 66 c86 78 113
119 113 170 0 35 -8 45 -96 129 l-96 92 46 38 c26 21 54 49 63 63 17 25 16 26
-15 54 -18 16 -37 29 -42 29 -11 0 -47 -30 -172 -143 -96 -86 -108 -113 -64
-142 26 -17 50 -11 76 19 11 14 22 7 91 -55 44 -39 79 -79 79 -89 0 -25 -33
-63 -90 -105 l-50 -37 -38 28 c-20 16 -68 57 -105 91 -71 65 -100 79 -140 69
-28 -7 -207 -160 -225 -192 -11 -21 -9 -25 21 -48 19 -15 37 -26 40 -26 4 0
39 30 79 66 40 36 81 70 90 75 13 7 31 -3 78 -42 38 -33 59 -57 56 -66 -4 -8
-1 -11 5 -7 10 6 59 -32 59 -46 0 -4 -46 -47 -102 -95 -108 -91 -133 -123
-123 -155 5 -15 68 -76 214 -206 12 -11 8 -18 -23 -46 -59 -51 -70 -80 -71
-185 -2 -90 -14 -146 -16 -67 0 36 -1 37 -10 14 -6 -14 -8 -40 -4 -57 3 -18 2
-33 -3 -33 -5 0 -10 24 -10 53 -2 41 -7 55 -24 67 -12 8 -29 23 -37 33 -9 9
-20 17 -26 17 -5 1 -48 34 -95 75 -47 41 -89 75 -95 75 -6 0 -21 -10 -35 -22
-14 -13 -61 -54 -105 -92 -44 -38 -102 -89 -128 -113 -45 -42 -49 -44 -70 -30
-25 16 -213 182 -221 195 -2 4 25 31 62 60 120 92 467 417 467 436 0 11 -12
28 -27 39 l-28 21 -36 -27 c-20 -14 -107 -90 -192 -169 -193 -178 -202 -184
-282 -208 -76 -23 -128 -63 -323 -251 l-129 -124 0 -88 -1 -87 -56 -47 c-77
-66 -122 -106 -210 -189 -120 -112 -165 -150 -184 -157 -15 -6 -16 -4 -7 13
11 20 -3 29 -15 10 -3 -5 -10 -10 -16 -10 -5 0 -9 5 -9 10 0 6 7 10 15 10 17
0 20 16 4 25 -6 4 -16 1 -22 -7 -7 -8 -29 -26 -49 -42 -34 -24 -45 -27 -104
-24 l-67 3 119 135 c66 74 132 151 148 170 42 51 382 396 517 525 259 247 628
591 779 725 47 41 112 100 145 130 108 101 239 214 315 276 247 198 635 473
667 474 12 0 58 -11 102 -25z m-3141 -91 c3 -22 -21 -39 -39 -28 -11 6 -12 38
-2 48 13 13 38 1 41 -20z m3469 -38 c50 -21 101 -47 114 -57 23 -17 23 -18 4
-39 -11 -12 -48 -42 -83 -66 -72 -52 -55 -56 -169 44 -40 35 -73 68 -73 73 0
10 102 89 111 86 3 -1 47 -20 96 -41z m1191 -45 c11 -33 17 -40 48 -45 43 -9
40 -25 -6 -41 -27 -9 -36 -19 -43 -46 -13 -53 -23 -54 -36 -5 -10 41 -15 46
-47 52 -43 8 -44 37 -1 42 27 3 35 14 51 65 9 28 22 20 34 -22z m-4818 -41 c0
-13 -7 -20 -20 -20 -13 0 -20 7 -20 20 0 13 7 20 20 20 13 0 20 -7 20 -20z
m4006 -112 l46 -33 -68 -62 c-38 -34 -82 -65 -98 -69 -96 -21 -184 -84 -225
-161 -24 -44 -49 -72 -104 -113 -39 -30 -115 -98 -168 -150 -80 -79 -100 -105
-118 -153 -28 -77 -28 -177 0 -254 19 -53 40 -77 233 -268 117 -115 249 -251
294 -302 46 -51 124 -129 175 -174 162 -145 377 -343 377 -349 0 -9 -144 1
-157 11 -7 7 -13 5 -15 -3 -4 -10 -10 -9 -30 4 -39 26 -279 251 -273 256 3 3
20 -9 38 -26 18 -18 37 -32 41 -32 5 0 -49 55 -120 122 -223 212 -496 478
-563 547 -191 197 -197 478 -15 652 33 30 84 75 114 99 30 25 91 76 135 115
75 66 116 102 349 297 50 42 94 77 98 78 4 0 28 -15 54 -32z m1134 -108 c39
-39 11 -110 -43 -110 -31 0 -67 35 -67 65 0 30 36 65 67 65 13 0 32 -9 43 -20z
m-5415 -40 c0 -29 -32 -41 -41 -16 -9 24 4 48 23 44 12 -2 18 -12 18 -28z
m4197 -161 c27 -34 28 -37 14 -69 -13 -31 -14 -32 -20 -12 -9 26 -28 28 -47 6
-9 -11 -22 -14 -41 -10 -25 5 -28 3 -28 -23 0 -16 -3 -43 -6 -60 -6 -26 -10
-30 -28 -25 -44 13 -66 33 -57 52 5 9 17 44 27 77 34 107 126 139 186 64z
m-4368 -1 c8 -13 8 -23 0 -35 -28 -45 -89 -9 -64 38 13 24 48 22 64 -3z m5069
-197 c50 -24 174 -148 251 -251 54 -73 90 -139 117 -219 20 -58 26 -146 9
-136 -5 3 -10 21 -10 38 -1 18 -9 55 -18 82 -71 204 -299 333 -523 296 -155
-25 -303 -130 -368 -259 -31 -61 -58 -171 -62 -256 -3 -44 0 -51 28 -75 48
-40 191 -108 289 -136 219 -65 500 -37 650 65 66 44 99 87 124 161 l17 49 21
-48 c38 -83 45 -128 26 -157 -19 -29 -91 -83 -152 -114 -151 -76 -473 -93
-698 -36 -258 66 -478 222 -579 410 -26 48 -28 57 -15 65 10 7 12 12 4 18 -6
4 -24 32 -39 62 -37 73 -47 180 -19 211 10 11 26 18 36 16 11 -3 15 -1 11 6
-4 6 0 8 10 4 10 -4 17 -1 17 6 0 7 5 4 11 -6 6 -9 14 -15 20 -12 14 9 11 27
-3 19 -8 -4 -10 -3 -5 2 5 5 12 8 15 7 4 -1 16 6 26 15 18 16 18 16 7 -5 -6
-12 -16 -25 -21 -28 -23 -14 -43 -83 -44 -150 0 -62 3 -75 30 -115 17 -25 38
-58 47 -75 9 -16 25 -41 36 -55 l20 -25 -3 27 c-2 15 -8 33 -14 40 -23 29 -34
103 -23 163 18 97 54 160 140 246 132 132 264 181 472 175 95 -2 125 -7 162
-25z m847 -21 c11 -11 20 -29 20 -40 0 -22 -33 -60 -53 -60 -27 0 -57 31 -57
60 0 55 52 78 90 40z m-6088 -17 c25 -23 23 -68 -4 -87 -32 -23 -54 -20 -77
11 -46 57 27 125 81 76z m4178 -217 c28 -35 -11 -93 -47 -70 -36 22 -23 84 17
84 10 0 23 -7 30 -14z m-4428 -37 c7 -21 22 -36 45 -46 39 -16 39 -18 -8 -41
-20 -10 -36 -27 -39 -41 -8 -35 -26 -37 -35 -4 -9 39 -23 53 -51 53 -36 0 -29
24 10 38 26 10 36 20 41 42 8 39 23 38 37 -1z m3748 -64 c47 -42 85 -80 85
-84 0 -13 -156 -141 -171 -141 -15 0 -97 65 -144 114 -30 32 -32 38 -20 51 27
26 155 134 160 134 3 1 44 -33 90 -74z m2768 3 c34 -34 -6 -90 -48 -68 -35 19
-20 80 20 80 9 0 21 -5 28 -12z m-2694 -319 c4 -25 18 -53 36 -72 17 -18 29
-39 27 -47 -1 -8 24 -37 57 -64 62 -53 86 -92 78 -132 -7 -39 -121 -154 -367
-369 -239 -210 -257 -221 -349 -224 -27 -1 -52 -2 -55 -3 -48 -5 -36 10 139
165 390 347 480 436 480 475 0 38 -49 110 -110 162 -28 23 -50 46 -50 51 0 9
91 98 101 99 4 0 9 -18 13 -41z m-3934 12 c0 -11 -5 -23 -11 -27 -15 -9 -33
12 -26 30 9 23 37 20 37 -3z m6840 -11 c11 -11 20 -28 20 -37 0 -46 -79 -73
-100 -34 -14 28 -12 57 6 75 21 22 50 20 74 -4z m-4042 -343 c302 -284 407
-377 428 -377 9 0 45 25 79 55 43 37 68 53 80 49 9 -4 14 -13 11 -21 -4 -10 2
-17 15 -20 19 -5 5 -22 -101 -123 l-124 -118 -95 86 c-53 47 -136 123 -186
168 -138 125 -319 280 -342 293 -29 15 -39 14 -57 -5 -30 -29 -18 -57 55 -132
39 -40 68 -76 65 -79 -3 -4 -14 1 -24 10 -10 10 -22 14 -25 10 -4 -3 -7 -2 -7
4 0 16 -106 51 -180 60 l-65 8 3 60 3 60 117 112 c64 62 118 113 120 113 2 0
105 -96 230 -213z m2101 123 c12 -6 32 -33 46 -61 14 -27 46 -70 71 -95 27
-28 43 -52 40 -61 -3 -8 -1 -11 4 -8 6 3 28 -9 49 -27 30 -25 37 -36 29 -46
-8 -10 -7 -11 7 -6 12 5 16 4 11 -4 -3 -6 3 -13 15 -17 11 -4 18 -9 15 -12 -3
-4 -1 -13 6 -20 15 -19 -51 11 -110 49 -24 15 -46 28 -51 28 -13 0 -122 113
-154 160 -37 53 -76 145 -77 179 0 23 1 22 39 -12 22 -19 49 -40 60 -47z
m-1121 38 c37 -31 90 -100 62 -83 -9 5 -10 2 -6 -12 5 -15 -4 -31 -32 -59 -79
-80 -124 -116 -147 -118 -19 -1 -21 -4 -12 -15 10 -12 9 -12 -11 -2 -22 12
-23 11 -12 -9 8 -15 8 -20 1 -16 -6 4 -11 3 -11 -2 0 -6 -7 -13 -16 -16 -13
-5 -14 -4 -6 7 16 19 4 28 -27 20 -24 -6 -25 -5 -9 10 9 9 23 14 31 11 10 -3
18 3 22 18 14 47 30 78 42 78 6 0 21 12 33 28 20 24 22 35 16 110 -6 82 -6 82
18 82 13 0 42 -15 64 -32z m-440 -64 c45 -36 82 -69 82 -74 0 -5 -39 -38 -86
-75 -68 -54 -89 -66 -105 -59 -24 11 -158 117 -158 126 -1 6 170 147 179 148
3 0 42 -30 88 -66z m-3474 -63 c25 -27 17 -64 -16 -75 -34 -12 -58 6 -58 45 0
45 44 63 74 30z m7140 -83 c23 -33 19 -64 -10 -87 -35 -27 -59 -26 -89 4 -47
46 -21 105 45 105 29 0 43 -6 54 -22z m-2480 -77 l84 -69 -31 -29 c-18 -16
-63 -53 -100 -82 l-68 -53 -47 43 c-26 24 -62 56 -80 71 -18 15 -30 32 -27 38
6 10 177 150 182 150 2 0 41 -31 87 -69z m1719 -121 c32 -27 66 -54 75 -60 15
-9 12 -15 -23 -46 -22 -20 -59 -49 -83 -66 l-42 -29 -33 22 c-63 45 -118 92
-115 101 3 9 150 128 158 128 3 0 31 -23 63 -50z m357 18 c0 -5 -4 -8 -10 -8
-5 0 -10 10 -10 23 0 18 2 19 10 7 5 -8 10 -18 10 -22z m-1335 12 c13 -6 15
-9 5 -9 -8 0 -22 4 -30 9 -18 12 -2 12 25 0z m-1824 -17 c13 -16 12 -17 -3 -4
-10 7 -18 15 -18 17 0 8 8 3 21 -13z m-1015 -8 c28 -8 66 -31 89 -51 l40 -37
-45 -20 c-49 -21 -158 -25 -218 -7 -42 11 -125 -12 -159 -46 -13 -13 -28 -24
-32 -24 -4 0 -21 -12 -37 -26 -16 -14 -39 -32 -52 -41 -15 -11 -19 -19 -13
-27 7 -8 4 -12 -11 -13 -12 -1 -25 -8 -29 -15 -4 -7 -11 -9 -15 -6 -3 4 9 20
27 35 19 15 77 68 129 118 144 137 155 146 196 160 50 18 70 18 130 0z m2917
8 c-7 -2 -19 -2 -25 0 -7 3 -2 5 12 5 14 0 19 -2 13 -5z m-2683 -13 c0 -5 -2
-10 -4 -10 -3 0 -8 5 -11 10 -3 6 -1 10 4 10 6 0 11 -4 11 -10z m775 -21 c-6
-8 8 -13 28 -10 5 1 6 -3 2 -9 -3 -6 -11 -8 -16 -5 -5 4 -6 -2 -2 -11 5 -14 3
-16 -11 -11 -10 4 -23 7 -29 7 -8 0 -8 3 1 12 9 9 7 14 -5 23 -23 17 -8 38 18
25 11 -6 17 -15 14 -21z m1805 20 c0 -5 4 -7 10 -4 5 3 18 1 27 -4 16 -9 15
-10 -8 -11 -14 0 -34 7 -45 15 -17 13 -17 14 -1 15 9 0 17 -5 17 -11z m1380
-34 c0 -5 -5 -3 -10 5 -5 8 -10 20 -10 25 0 6 5 3 10 -5 5 -8 10 -19 10 -25z
m-3135 15 c3 -6 -1 -7 -9 -4 -18 7 -21 14 -7 14 6 0 13 -4 16 -10z m3045 -10
c0 -5 -2 -10 -4 -10 -3 0 -8 5 -11 10 -3 6 -1 10 4 10 6 0 11 -4 11 -10z m36
-14 c3 -14 4 -33 1 -43 -3 -10 -6 -2 -7 17 -1 29 -3 32 -10 15 -8 -18 -9 -17
-9 8 -1 33 16 36 25 3z m61 -28 c-3 -8 -6 -5 -6 6 -1 11 2 17 5 13 3 -3 4 -12
1 -19z m-2478 -134 l122 -109 -73 -3 c-53 -2 -74 1 -76 10 -2 7 -48 56 -102
108 l-99 95 32 21 c38 25 22 35 196 -122z m2368 114 c-3 -8 -6 -5 -6 6 -1 11
2 17 5 13 3 -3 4 -12 1 -19z m-6780 -9 c16 -16 5 -39 -18 -39 -12 0 -19 7 -19
18 0 31 17 41 37 21z m3068 -18 c17 -15 39 -37 49 -50 l20 -22 -63 -63 -63
-64 -112 -1 -111 -2 119 116 c65 63 121 115 125 115 3 0 20 -13 36 -29z m3828
14 c-3 -9 -8 -14 -10 -11 -3 3 -2 9 2 15 9 16 15 13 8 -4z m-897 -39 c27 -23
28 -24 11 -50 -21 -32 -66 -35 -91 -7 -20 22 -10 52 22 70 24 15 28 14 58 -13z
m-3372 -58 c-6 -10 -4 -10 7 0 24 22 33 12 10 -12 -18 -19 -26 -22 -36 -13
-13 12 -2 37 17 37 5 0 6 -6 2 -12z m4711 -48 c0 -18 -6 -26 -21 -28 -26 -4
-40 24 -23 45 18 21 44 11 44 -17z m-4900 -45 c0 -14 -6 -19 -20 -17 -26 5
-29 8 -21 27 8 23 41 14 41 -10z m-2461 -58 c5 -23 42 -47 71 -47 8 0 15 -4
15 -9 0 -11 -25 -21 -51 -21 -10 0 -26 -11 -35 -25 -19 -30 -31 -32 -39 -7 -6
21 -45 42 -75 42 -11 0 -20 5 -20 10 0 6 7 10 15 10 27 0 73 29 80 50 9 27 31
25 39 -3z m3884 -132 c-40 -30 -85 -63 -100 -74 -30 -24 -43 -27 -32 -8 4 7 3
9 -2 4 -5 -5 -9 -14 -9 -20 0 -20 -67 -35 -145 -33 -41 2 -135 4 -207 5 l-133
1 0 26 c0 14 -4 23 -10 19 -5 -3 -10 -14 -10 -24 0 -26 -52 -31 -326 -31
l-234 0 0 23 c0 12 -5 29 -10 37 -8 12 -10 9 -10 -12 0 -17 -8 -31 -19 -38
-14 -7 -234 -9 -673 -8 l-653 3 -3 33 c-2 17 -7 32 -12 32 -5 0 -10 -15 -12
-32 l-3 -33 -370 0 -370 0 1 25 c1 14 5 55 9 92 l7 68 1671 2 c920 2 1684 1
1700 -1 26 -3 23 -6 -45 -56z m2891 -11 l1 -42 -107 -4 c-145 -5 -241 10 -282
45 -40 33 -73 42 -101 27 -33 -18 -60 -70 -60 -118 l0 -43 -42 3 -43 3 -3 55
c-1 30 1 73 6 95 l8 40 304 5 c340 6 318 10 319 -66z m-2540 -26 c91 -71 117
-96 109 -106 -28 -34 -231 -173 -244 -168 -27 10 -233 171 -233 181 0 10 228
184 242 185 4 0 61 -42 126 -92z m1795 55 c3 -21 2 -63 -2 -93 l-7 -55 -369 3
c-204 2 -374 6 -379 9 -4 3 -6 11 -3 19 3 7 1 16 -4 19 -6 4 -10 -5 -10 -18 0
-36 -25 -38 -405 -36 l-334 1 -98 71 c-54 38 -111 81 -126 93 l-29 24 880 0
880 0 6 -37z m1386 -123 c22 -42 -19 -92 -59 -71 -27 15 -34 41 -16 67 19 30
60 32 75 4z m-3475 -145 c62 -47 120 -94 129 -104 14 -16 16 -42 14 -206 l-3
-188 -105 88 c-58 48 -120 102 -137 118 l-33 31 0 173 c0 127 3 173 12 173 6
0 62 -38 123 -85z m-2863 -102 c75 -65 189 -165 254 -223 66 -58 136 -119 156
-136 l38 -30 -31 -42 c-17 -23 -34 -42 -37 -42 -4 0 -63 48 -131 108 -189 164
-288 248 -333 279 l-41 28 -214 3 c-210 4 -213 4 -213 25 -1 12 -3 39 -6 60
-3 21 -3 49 0 63 l6 24 209 0 208 0 135 -117z m818 107 c0 -18 -31 -72 -74
-130 -35 -48 -41 -63 -44 -117 l-4 -63 -159 0 c-93 0 -160 4 -164 10 -3 5 -82
75 -176 156 -93 80 -169 148 -169 150 0 2 178 4 395 4 269 0 395 -3 395 -10z
m1111 -17 c115 -97 364 -327 364 -337 0 -6 -19 -29 -43 -50 l-42 -39 -43 28
c-23 15 -76 63 -118 105 -54 55 -80 76 -90 70 -8 -5 -19 -4 -28 3 -12 9 -13 9
-8 0 8 -14 -54 -30 -72 -18 -6 3 -148 6 -315 5 l-304 -1 -7 51 -7 50 -43 0
c-47 0 -55 -9 -55 -65 0 -26 -5 -34 -24 -39 -16 -4 -47 -40 -95 -111 l-72
-105 -59 57 c-33 31 -60 61 -60 66 0 5 23 44 52 86 28 42 72 105 96 141 24 36
58 80 75 98 l31 32 417 0 417 0 33 -27z m685 -34 c-3 -34 -6 -72 -6 -83 0 -21
-4 -22 -172 -23 l-172 -2 -63 49 c-76 58 -133 107 -133 115 0 3 124 5 276 5
l277 0 -7 -61z m1074 54 c0 -5 -20 -23 -44 -40 -40 -31 -49 -33 -119 -33 -43
0 -77 4 -77 9 0 5 -3 23 -6 40 l-6 31 126 0 c69 0 126 -3 126 -7z m1393 1 c9
-9 -44 -51 -152 -124 l-45 -30 -488 0 -488 0 -2 43 -1 42 -6 -43 c-5 -36 -13
-49 -48 -75 -92 -69 -360 -281 -577 -457 -126 -102 -236 -189 -243 -193 -10
-6 -32 7 -70 40 -31 26 -135 114 -231 195 l-174 148 -62 -53 c-34 -28 -97 -79
-140 -112 -43 -33 -108 -84 -144 -112 -37 -29 -70 -53 -73 -53 -6 0 -89 70
-169 143 l-55 50 74 -7 c40 -4 85 -12 99 -17 31 -12 49 0 301 195 l174 135 38
-30 c21 -16 125 -104 230 -195 106 -90 196 -163 201 -162 14 5 350 274 541
433 99 83 207 171 240 198 l59 47 603 0 c331 0 604 -3 608 -6z m645 -36 c3
-32 -1 -39 -25 -52 l-28 -15 25 -2 c20 -1 18 -3 -10 -9 -29 -6 -31 -8 -10 -9
23 -2 24 -3 5 -12 -17 -8 -16 -9 8 -6 15 3 27 0 27 -4 0 -5 -22 -9 -49 -9 -40
0 -51 4 -64 24 -19 29 -33 42 -91 86 -25 19 -45 39 -46 43 0 4 57 6 128 5
l127 -3 3 -37z m-403 20 c2 -7 6 -44 9 -81 6 -80 2 -84 -76 -68 -29 6 -79 12
-110 12 -32 1 -58 3 -58 5 0 1 41 35 91 73 89 69 134 87 144 59z m-6411 -20
c23 -37 -36 -77 -63 -44 -8 10 -11 26 -7 42 5 20 12 25 33 22 14 -2 31 -11 37
-20z m7436 -167 c18 -36 -11 -68 -50 -56 -42 13 -29 75 15 75 14 0 29 -8 35
-19z m-1421 -108 c-57 -52 -109 -126 -109 -155 0 -15 -8 -18 -50 -18 l-50 0 0
89 0 89 93 4 c60 3 102 10 122 21 51 28 49 19 -6 -30z m706 33 c30 -13 35 -20
35 -48 0 -42 -22 -74 -56 -82 -32 -8 -58 12 -73 56 -10 27 -8 33 18 59 34 34
32 33 76 15z m-1055 -21 c12 -7 13 -75 2 -92 -6 -9 -26 1 -73 38 -93 75 -93
72 -11 66 39 -3 77 -9 82 -12z m-537 -2 c-13 -2 -33 -2 -45 0 -13 2 -3 4 22 4
25 0 35 -2 23 -4z m-4113 -36 c19 -9 104 -78 188 -152 84 -74 164 -143 178
-154 13 -10 24 -24 24 -30 0 -18 -64 -111 -76 -111 -6 0 -44 30 -85 68 -128
116 -218 191 -251 209 -28 15 -67 18 -240 21 -237 5 -218 -5 -218 110 l0 63
223 -3 c188 -3 227 -6 257 -21z m4098 10 c14 4 14 3 2 -5 -16 -12 -30 -7 -29
11 0 9 2 9 5 0 3 -7 13 -9 22 -6z m1247 -17 c41 -20 98 -70 79 -70 -5 0 -31 7
-58 15 -160 49 -307 -22 -337 -161 l-12 -59 -13 30 c-39 89 15 194 126 244 61
28 159 28 215 1z m-6377 -29 c-2 -18 -10 -27 -25 -29 -29 -4 -43 36 -18 54 25
19 47 6 43 -25z m5125 11 c-10 -8 -27 -18 -38 -23 -20 -10 -20 -10 0 6 16 12
17 18 7 24 -9 5 -3 8 17 7 28 -1 30 -2 14 -14z m480 -198 c15 -12 27 -26 26
-30 0 -8 -246 -195 -295 -224 -19 -11 -32 -4 -139 81 -65 52 -134 108 -153
124 l-34 30 98 70 c53 39 124 91 158 116 l61 45 125 -95 c69 -53 138 -106 153
-117z m-698 125 c22 -23 34 -39 27 -34 -8 4 -18 0 -26 -11 -8 -10 -18 -14 -25
-10 -9 6 -7 12 6 22 10 7 13 14 7 14 -6 0 -19 -9 -30 -21 -13 -15 -14 -20 -4
-17 8 2 16 -5 17 -17 2 -15 -18 -36 -73 -78 -41 -32 -80 -55 -86 -51 -6 4 -8
3 -4 -4 5 -9 -188 -172 -205 -172 -13 0 -84 62 -84 73 0 13 414 347 430 347 6
0 29 -19 50 -41z m-3053 -101 c52 -46 185 -164 294 -263 110 -99 212 -190 229
-203 56 -44 13 -46 -245 -12 -221 29 -320 40 -377 40 -49 0 -53 -2 -91 -47
-22 -27 -54 -73 -73 -103 -18 -30 -49 -78 -70 -105 -20 -28 -56 -83 -81 -122
l-44 -72 -55 41 c-30 23 -65 53 -79 67 -14 15 -38 36 -55 48 l-29 21 164 248
c307 462 367 544 399 544 9 0 60 -37 113 -82z m973 6 c41 -36 75 -69 75 -74 0
-15 -35 -22 -110 -21 -68 1 -79 -2 -120 -29 l-45 -30 -37 37 c-24 23 -34 41
-29 46 19 19 176 136 183 137 4 0 41 -30 83 -66z m-507 4 c18 -15 15 -42 -9
-72 -26 -33 -63 -34 -85 -2 -41 63 33 122 94 74z m5122 -68 c11 -11 20 -31 20
-45 0 -29 -32 -65 -59 -65 -29 0 -71 39 -71 66 0 31 33 64 65 64 14 0 34 -9
45 -20z m-631 -16 c8 -7 -22 -139 -33 -146 -6 -4 -86 -8 -177 -8 -197 0 -250
-12 -314 -71 -70 -65 -87 -118 -93 -291 l-5 -148 -92 0 -92 0 -2 123 c-1 67 3
158 9 202 22 177 142 319 291 344 49 8 498 4 508 -5z m-5812 -25 c45 -22 283
-243 283 -263 0 -6 -8 -20 -17 -31 -9 -12 -14 -14 -10 -5 3 11 -2 16 -14 16
-11 0 -19 -5 -19 -10 0 -5 -8 -2 -18 7 -10 10 -21 14 -24 11 -4 -3 -35 15 -70
40 -125 91 -120 90 -328 90 l-184 1 -14 79 c-12 66 -12 80 -1 88 9 5 87 7 194
3 152 -5 187 -9 222 -26z m4265 -207 c37 -34 28 -39 -21 -11 -23 12 -44 19
-48 15 -4 -4 -2 -11 6 -15 7 -5 12 -11 12 -15 -2 -11 32 -60 51 -74 24 -17 24
-44 1 -35 -17 6 -17 5 0 -15 19 -20 18 -21 -5 -15 -23 6 -23 6 -5 -15 10 -11
19 -26 21 -34 1 -7 6 -19 10 -27 7 -10 5 -12 -5 -6 -36 22 -132 97 -216 168
l-93 79 0 102 c0 57 3 106 6 109 6 6 229 -158 286 -211z m-5229 151 c7 -23 17
-32 45 -39 50 -13 50 -30 0 -45 -35 -12 -44 -19 -48 -43 -8 -44 -27 -43 -39 2
-10 36 -15 40 -51 46 -53 8 -53 32 0 41 33 6 41 12 46 33 4 15 9 31 11 35 9
16 28 0 36 -30z m2513 -19 c10 -8 12 -12 4 -8 -12 5 -13 4 -3 -6 10 -10 2 -19
-35 -44 -26 -17 -55 -39 -64 -48 -20 -20 -53 -24 -64 -6 -4 6 5 20 22 32 16
11 47 38 69 58 46 43 45 43 71 22z m1248 -161 c67 -51 147 -115 180 -141 32
-26 67 -54 78 -63 19 -15 12 -21 -157 -150 -97 -74 -193 -146 -214 -161 l-37
-26 -61 46 c-33 26 -126 99 -206 162 -137 108 -145 116 -129 132 45 43 408
306 416 300 5 -3 64 -47 130 -99z m1430 5 c-5 -7 -2 -9 9 -5 9 3 21 -1 29 -11
11 -15 11 -15 -3 -5 -9 7 -19 10 -22 7 -9 -9 -28 6 -22 17 4 5 8 9 11 9 3 0 2
-5 -2 -12z m-521 -110 c56 -44 106 -84 110 -88 8 -7 -127 -121 -211 -179 l-33
-23 -67 52 c-37 29 -88 69 -114 88 -27 20 -48 41 -48 47 1 13 230 184 248 185
7 0 59 -37 115 -82z m1831 73 c13 -5 2 -8 -33 -9 -29 0 -67 -4 -85 -8 -21 -4
-28 -3 -21 4 20 20 102 28 139 13z m-5498 -53 c21 -15 59 -45 83 -66 43 -37
44 -40 32 -69 -7 -17 -23 -41 -36 -53 l-23 -21 -65 44 c-91 63 -122 71 -241
64 -56 -3 -108 -8 -116 -11 -12 -5 -19 8 -33 61 -9 38 -17 72 -17 76 0 5 85 7
188 5 187 -3 189 -3 228 -30z m1815 -60 c55 -51 128 -115 161 -142 55 -46 59
-51 42 -63 -11 -8 -46 -13 -89 -13 l-70 0 -125 112 c-69 61 -125 115 -125 119
0 9 87 79 98 79 4 0 53 -42 108 -92z m3517 78 c-7 -8 -15 -12 -17 -11 -5 6 10
25 20 25 5 0 4 -6 -3 -14z m115 7 c3 -5 -10 -8 -28 -9 -19 0 -32 3 -29 8 6 10
51 11 57 1z m885 -22 c20 -12 10 -46 -14 -49 -25 -4 -40 24 -23 44 13 16 19
17 37 5z m-1478 -38 l0 -28 -81 2 c-45 1 -79 0 -76 -4 6 -5 -16 -33 -26 -33
-9 0 -2 35 8 43 6 5 4 7 -5 4 -8 -2 -14 -10 -12 -17 2 -7 -3 -10 -12 -7 -8 3
-20 -1 -27 -9 -11 -13 -10 -15 2 -13 27 4 49 -13 49 -40 -1 -25 -2 -24 -16 9
-11 26 -17 31 -24 21 -7 -12 -11 -12 -24 1 -14 14 -10 20 37 57 51 40 54 41
130 41 l77 0 0 -27z m-3259 -187 c-7 -8 -99 -80 -204 -160 -340 -257 -500
-380 -572 -436 -38 -31 -112 -86 -163 -123 l-93 -68 -51 43 c-29 24 -113 99
-187 167 -75 68 -221 201 -326 296 -104 95 -199 182 -209 194 -15 16 -31 21
-67 21 -39 0 -50 4 -60 22 -14 26 4 42 66 60 68 19 108 15 158 -17 25 -17 188
-158 362 -315 174 -157 323 -289 329 -294 9 -6 48 19 127 81 63 49 200 155
304 235 105 81 262 203 350 272 l160 125 44 -44 c37 -37 42 -46 32 -59z m2989
100 c0 -3 -4 -8 -10 -11 -5 -3 -10 -1 -10 4 0 6 5 11 10 11 6 0 10 -2 10 -4z
m-5550 -24 c0 -10 -5 -23 -11 -29 -17 -17 -39 -4 -39 23 0 19 5 24 25 24 17 0
25 -5 25 -18z m5595 -22 c3 -5 1 -10 -4 -10 -6 0 -11 5 -11 10 0 6 2 10 4 10
3 0 8 -4 11 -10z m762 -52 c-2 -13 -4 -3 -4 22 0 25 2 35 4 23 2 -13 2 -33 0
-45z m-3099 -45 c70 -53 165 -128 211 -167 l83 -70 -7 -155 c-3 -85 -10 -160
-15 -167 -6 -6 -7 -14 -3 -17 3 -4 1 -7 -6 -7 -8 0 -11 7 -7 15 6 17 4 18 -19
9 -14 -6 -14 -8 2 -27 21 -25 -37 21 -197 153 -63 53 -130 106 -147 118 l-33
23 0 195 c0 107 3 194 6 194 3 0 63 -44 132 -97z m1111 4 c70 -54 101 -84 101
-98 0 -19 -1 -19 -16 -5 -8 9 -20 16 -26 16 -6 0 -31 16 -54 36 -50 40 -65 38
-55 -8 5 -30 6 -44 2 -71 0 -5 -19 6 -41 23 l-40 32 0 84 c0 99 -12 100 129
-9z m1138 51 c-3 -8 -6 -5 -6 6 -1 11 2 17 5 13 3 -3 4 -12 1 -19z m850 -74
c-3 -3 -12 -4 -19 -1 -8 3 -5 6 6 6 11 1 17 -2 13 -5z m-3586 -97 c90 -80 393
-347 484 -426 17 -14 95 -85 175 -157 l145 -131 60 49 c33 26 85 68 115 92 71
58 230 181 289 225 25 18 60 47 78 63 17 17 36 27 41 24 6 -3 13 -2 17 4 3 5
11 10 16 10 6 0 7 -4 4 -10 -3 -5 -1 -10 4 -10 6 0 11 4 11 9 0 17 -21 23 -36
10 -12 -9 -13 -9 -9 2 4 8 34 35 67 60 l61 46 78 -65 78 -65 -1 -68 c-1 -38
-5 -69 -9 -69 -4 0 -30 19 -58 43 -28 24 -62 49 -76 57 -22 12 -27 11 -44 -6
-10 -10 -27 -26 -37 -34 -11 -8 -75 -60 -142 -115 -68 -55 -133 -107 -145
-115 -12 -8 -100 -77 -195 -153 l-172 -139 -33 29 c-161 135 -451 383 -582
498 -88 77 -193 168 -233 202 l-73 62 -87 -72 c-48 -40 -176 -139 -284 -221
-109 -81 -198 -151 -198 -155 0 -7 90 -91 271 -252 58 -52 189 -170 293 -262
129 -117 191 -166 199 -159 7 5 71 55 142 112 72 57 135 107 140 111 6 4 30
-9 53 -30 l44 -37 -59 -45 c-32 -26 -89 -72 -128 -104 -194 -159 -217 -175
-234 -166 -20 11 -205 176 -361 321 -63 59 -158 145 -210 190 -52 46 -154 140
-227 210 l-132 126 146 114 c80 63 216 169 302 234 86 66 194 150 241 188 47
37 90 68 96 68 6 0 58 -42 115 -93z m3494 84 c-3 -6 12 -12 32 -14 l38 -4 -42
-1 c-32 -2 -43 2 -43 13 0 8 5 15 11 15 5 0 8 -4 4 -9z m969 -10 c10 -16 -5
-41 -25 -41 -14 0 -19 7 -19 25 0 18 5 25 19 25 11 0 22 -4 25 -9z m-2123 -93
c51 -40 94 -77 96 -83 1 -5 -45 -46 -103 -89 -100 -76 -107 -79 -129 -65 -46
28 -176 140 -173 149 3 10 200 159 210 160 4 0 48 -33 99 -72z m-5046 -38 c37
-40 -19 -95 -64 -63 -24 16 -26 35 -9 63 16 26 50 26 73 0z m6472 -13 c8 -1 0
-28 -21 -77 l-33 -75 -369 -3 c-267 -2 -375 1 -391 9 -23 13 -16 18 -417 -308
-56 -45 -171 -138 -256 -206 l-154 -125 -48 36 c-26 21 -46 42 -44 47 1 6 75
69 163 140 88 72 232 189 319 260 88 72 184 149 214 173 30 24 81 65 113 91
l57 48 428 -4 c235 -2 432 -5 439 -6z m-5728 -150 c36 -30 122 -105 191 -168
69 -63 172 -154 230 -204 58 -49 133 -116 168 -147 35 -32 71 -58 81 -58 9 0
80 50 159 111 125 97 145 108 160 97 32 -23 233 -201 230 -203 -2 -2 -24 -19
-50 -39 l-48 -36 -52 43 c-104 84 -94 82 -152 33 -28 -24 -93 -75 -145 -114
l-95 -70 -45 31 c-46 30 -130 101 -226 187 -28 25 -110 96 -182 158 -152 131
-164 145 -237 284 -55 106 -73 148 -60 148 4 0 37 -24 73 -53z m6363 -12 c9
-21 8 -28 -7 -45 -24 -26 -50 -25 -69 2 -20 28 -20 33 0 52 24 25 63 20 76 -9z
m-4569 -71 c7 -8 -33 -42 -173 -146 -63 -47 -126 -89 -139 -93 -23 -7 -23 -6
-8 15 9 13 27 30 40 39 13 9 56 43 96 76 137 112 164 128 184 109z m-2359 -60
c19 -18 19 -20 6 -45 -18 -33 -70 -18 -70 21 0 19 19 40 36 40 7 0 20 -7 28
-16z m5736 -6 c0 -7 -39 -47 -87 -88 -49 -41 -99 -85 -113 -97 -14 -12 -65
-53 -115 -91 -49 -38 -89 -74 -87 -80 1 -7 -2 -12 -8 -12 -11 0 -9 -22 3 -31
4 -3 -43 -47 -105 -96 -62 -50 -145 -117 -184 -150 -204 -167 -262 -213 -271
-213 -13 0 -94 63 -188 145 -38 34 -76 65 -83 69 -12 7 -92 -52 -297 -220 -55
-45 -189 -153 -297 -239 -108 -86 -200 -166 -204 -178 -5 -17 2 -29 37 -60
116 -103 298 -271 296 -274 -2 -1 -34 -9 -72 -17 l-69 -14 -91 82 c-123 112
-224 196 -236 196 -10 0 -60 -36 -162 -118 -61 -49 -66 -57 -72 -100 -3 -26
-7 -53 -8 -60 -2 -11 -137 99 -145 118 -3 8 164 149 278 235 36 27 81 62 101
79 20 17 105 85 189 151 218 170 235 187 222 211 -9 17 -217 201 -256 227 -11
7 -8 11 68 71 l36 28 68 -58 c37 -32 104 -91 150 -131 45 -40 87 -73 92 -73 5
0 24 13 41 28 39 35 33 50 -43 113 -29 24 -86 72 -125 107 l-73 64 47 39 c39
32 49 36 62 26 9 -7 69 -56 133 -109 122 -101 138 -107 174 -67 25 27 11 61
-43 105 -27 21 -93 77 -148 124 -149 127 -131 118 -168 83 -38 -35 -157 -129
-207 -163 -19 -13 -57 -43 -85 -67 -27 -24 -53 -43 -57 -43 -10 0 -98 63 -98
69 1 3 26 24 57 46 31 22 79 61 107 87 109 99 319 268 333 268 8 0 67 -46 131
-102 134 -120 581 -506 594 -514 4 -3 27 9 51 28 159 123 341 270 392 314 33
28 150 122 260 208 176 137 204 155 238 156 23 0 37 -5 37 -12z m-3081 -72
c109 -90 177 -164 163 -178 -14 -14 -23 -7 -25 20 0 11 -5 18 -9 16 -4 -3 -8
2 -8 10 0 9 -4 16 -8 16 -5 0 -9 -7 -9 -15 0 -8 4 -15 7 -15 4 0 10 -18 14
-40 7 -43 19 -51 35 -22 6 9 11 13 11 7 1 -5 5 -1 9 10 7 15 9 10 9 -20 0 -22
-3 -32 -7 -23 -5 14 -9 14 -23 4 -10 -7 -15 -16 -11 -19 3 -4 4 -7 1 -7 -3 0
-17 18 -32 40 -14 22 -33 40 -42 40 -8 0 -13 4 -9 10 3 5 12 7 20 3 8 -3 15 0
15 7 0 6 -3 9 -8 6 -4 -2 -16 2 -27 10 -12 9 -14 14 -5 14 7 0 11 2 8 5 -3 3
-16 1 -29 -4 l-24 -9 28 -7 c22 -6 25 -10 16 -21 -12 -15 -34 -20 -25 -5 8 13
-21 34 -38 28 -7 -3 -18 -1 -24 5 -7 7 -16 6 -29 -3 -34 -25 -226 -183 -255
-210 -31 -30 -21 -34 -107 44 -42 38 -42 39 -24 59 24 27 361 296 372 298 2 0
34 -24 70 -54z m1872 -5 c21 -17 22 -23 14 -57 -8 -32 -16 -40 -44 -48 -31 -9
-36 -7 -62 22 -34 38 -36 55 -9 82 25 25 71 26 101 1z m2251 -48 c40 -36 10
-96 -46 -91 -43 4 -65 48 -42 84 19 28 60 32 88 7z m-927 -140 l78 -66 -29
-21 c-16 -12 -45 -35 -64 -52 -19 -17 -79 -66 -133 -108 l-97 -78 -53 40 c-28
22 -67 53 -85 69 l-34 28 159 127 c87 70 163 128 169 128 6 0 46 -30 89 -67z
m-3167 25 c-2 -7 5 -12 15 -11 10 0 16 -2 13 -5 -4 -3 7 -11 22 -18 16 -6 32
-21 35 -33 5 -21 5 -21 -23 1 -16 13 -40 31 -54 41 -26 18 -34 37 -16 37 6 0
9 -6 8 -12z m-2608 -51 c0 -7 -5 -18 -12 -25 -15 -15 -39 3 -31 24 7 18 43 19
43 1z m3087 -231 l163 -147 37 25 c35 24 38 25 56 8 19 -16 18 -18 -24 -56
-72 -63 -86 -71 -107 -55 -15 13 -16 12 -3 -3 11 -15 11 -19 -4 -24 -12 -5
-32 8 -71 47 -29 30 -52 59 -49 66 2 7 0 15 -6 18 -5 4 -6 12 -3 18 4 7 3 8
-1 4 -13 -11 -15 -38 -3 -31 7 4 8 2 4 -5 -6 -9 -11 -9 -22 0 -7 6 -11 15 -8
20 3 5 -3 6 -13 2 -16 -6 -16 -5 -4 10 7 9 17 14 22 11 5 -3 9 0 9 5 0 14 -17
14 -25 1 -4 -6 -13 -5 -25 3 -24 14 -26 27 -4 27 8 0 12 -4 9 -10 -3 -5 -1
-10 4 -10 24 0 7 22 -59 77 l-70 58 0 53 c0 47 2 52 18 43 9 -5 90 -75 179
-155z m3431 132 c28 -28 1 -98 -37 -98 -30 0 -61 30 -61 59 0 35 17 51 55 51
17 0 36 -5 43 -12z m-6368 -78 c11 -11 20 -27 20 -35 0 -18 -35 -55 -53 -55
-18 0 -43 21 -50 42 -7 20 28 68 49 68 8 0 23 -9 34 -20z m1681 -73 c20 -18
100 -88 178 -156 l141 -123 -34 -27 c-19 -14 -37 -34 -40 -45 -4 -17 -7 -17
-38 5 -18 13 -71 55 -117 94 -46 38 -98 82 -115 96 -29 24 -85 35 -156 30 -8
-1 -96 -4 -195 -7 -106 -4 -186 -10 -195 -17 -8 -6 -5 0 8 14 22 23 29 24 175
29 l153 5 84 67 c47 37 92 67 100 67 8 0 31 -14 51 -32z m-1533 -205 c3 -17
-2 -22 -17 -22 -14 0 -21 6 -21 18 0 38 33 41 38 4z m2777 -92 c-8 -9 -12 -20
-8 -24 5 -4 3 -6 -3 -4 -6 2 -37 -22 -70 -53 -123 -117 -227 -203 -236 -194
-10 11 2 -88 13 -101 9 -10 9 -14 0 -14 -6 0 -14 6 -17 14 -3 8 -14 16 -25 19
-23 6 -24 3 -6 -15 12 -11 12 -16 -1 -28 -14 -13 -15 -12 -9 2 3 9 -1 22 -9
29 -10 9 -11 15 -3 25 8 10 6 19 -8 38 -10 14 -21 26 -25 26 -8 0 1 -29 14
-47 6 -7 7 -17 3 -23 -4 -6 -1 -17 5 -25 7 -8 10 -15 6 -15 -3 0 -15 15 -26
33 -15 24 -20 50 -20 104 0 80 13 99 42 63 10 -12 18 -19 18 -14 0 4 -9 18
-20 29 l-21 22 157 126 156 126 54 -41 c50 -37 53 -42 39 -58z m3195 75 c0
-29 -34 -36 -44 -9 -8 21 1 34 25 34 14 0 19 -7 19 -25z m-4452 -90 c35 -30
78 -67 97 -81 19 -15 35 -30 35 -34 0 -6 -147 -106 -242 -164 -21 -12 -28 -24
-28 -46 0 -36 -13 -38 -34 -8 -9 12 -16 19 -16 14 0 -5 -10 -1 -22 10 -13 11
-18 13 -13 4 5 -8 -11 0 -35 19 -25 18 -64 47 -87 64 -36 25 -40 33 -30 46 13
16 299 231 307 231 3 0 33 -25 68 -55z m1702 15 c42 -35 50 -36 92 -10 42 25
63 25 99 -1 l29 -21 -52 -41 c-29 -23 -84 -68 -122 -99 -38 -32 -73 -58 -78
-58 -11 0 -96 66 -115 89 -7 8 -13 35 -13 59 0 38 5 50 36 78 45 43 78 44 124
4z m-350 -76 c0 -1 -7 -5 -16 -8 -8 -3 -12 -2 -9 3 3 5 1 12 -5 16 -5 3 -10
10 -10 15 0 6 9 2 20 -7 11 -10 20 -18 20 -19z m-2582 -53 c8 -23 19 -31 46
-37 20 -3 36 -10 36 -14 0 -4 -18 -14 -40 -23 -32 -12 -41 -22 -46 -47 -8 -38
-25 -34 -36 8 -7 24 -16 33 -40 40 -43 11 -46 29 -7 37 20 5 37 18 48 36 20
36 27 36 39 0z m2552 26 c0 -2 -20 -18 -44 -35 -43 -31 -73 -42 -61 -22 4 6
10 8 14 5 5 -2 17 5 27 16 11 12 28 25 39 30 25 10 25 10 25 6z m-70 -16 c0
-6 -4 -12 -8 -15 -5 -3 -9 1 -9 9 0 8 4 15 9 15 4 0 8 -4 8 -9z m2001 -18 c13
-16 12 -17 -3 -4 -10 7 -18 15 -18 17 0 8 8 3 21 -13z m-718 -84 c59 -50 107
-94 106 -97 0 -7 -213 -164 -230 -170 -12 -5 -230 159 -227 170 4 12 221 186
233 187 6 0 58 -40 118 -90z m-2106 49 c13 -12 23 -25 23 -28 0 -4 -16 -24
-36 -45 l-35 -38 -36 37 -36 37 28 29 c34 36 60 38 92 8z m2729 10 c-1 -7 -5
-18 -9 -24 -9 -15 19 -38 35 -28 21 12 6 -1 -44 -39 -64 -49 -109 -72 -102
-53 3 8 15 16 27 18 15 2 21 9 19 21 -2 11 2 17 10 16 21 -4 70 20 63 31 -3 5
-13 10 -22 10 -13 0 -13 3 -3 15 9 11 9 15 1 15 -6 0 -14 -7 -17 -15 -4 -8
-11 -15 -18 -15 -6 1 5 14 24 30 39 34 39 34 36 18z m1089 -18 c0 -27 -22 -39
-31 -16 -8 22 3 49 19 43 6 -2 12 -14 12 -27z m-1005 6 c-10 -13 -40 -12 -40
1 0 3 7 3 15 0 8 -4 17 -2 20 3 4 6 9 10 12 10 3 0 0 -6 -7 -14z m-2130 -10
c-7 -7 -13 -7 -20 0 -6 6 -3 10 10 10 13 0 16 -4 10 -10z m-55 -45 c-3 -6 3
-14 12 -20 10 -6 13 -11 7 -11 -15 0 -36 25 -27 33 10 10 15 8 8 -2z m2074 -2
c-7 -5 -24 -9 -35 -9 -12 0 -24 -7 -28 -15 -3 -8 -11 -15 -17 -15 -7 0 -5 8 6
20 25 27 7 25 -24 -2 l-26 -23 22 25 c17 19 32 25 69 27 32 1 43 -1 33 -8z
m-1989 -12 c0 -2 -10 -12 -21 -23 -22 -19 -22 -19 -10 4 10 18 31 31 31 19z
m325 -27 c-3 -5 -1 -10 4 -10 6 0 11 -5 11 -11 0 -8 -5 -8 -15 1 -13 11 -12
30 1 30 3 0 2 -4 -1 -10z m77 -28 c3 -12 -2 -23 -13 -31 -11 -6 -19 -7 -19 -2
0 6 4 12 9 15 5 3 7 16 3 28 -3 13 -1 19 5 15 6 -4 13 -15 15 -25z m-455 -4
c-3 -8 -6 -5 -6 6 -1 11 2 17 5 13 3 -3 4 -12 1 -19z m417 -8 c-6 -6 -10 -3
-10 10 0 13 4 16 10 10 7 -7 7 -13 0 -20z m-54 10 c12 -7 17 -16 13 -27 -5
-12 -3 -14 7 -8 8 5 11 4 6 -3 -4 -6 -13 -9 -21 -5 -8 3 -15 1 -15 -5 0 -18
24 -20 43 -4 11 10 17 11 17 4 0 -7 -3 -12 -7 -12 -5 0 -21 -11 -37 -25 -16
-14 -34 -25 -39 -25 -6 0 0 8 11 19 21 18 21 19 3 35 -10 9 -25 14 -34 11 -22
-9 -30 11 -9 26 15 13 16 12 4 -2 -11 -15 -9 -17 15 -16 36 2 60 22 37 31 -9
3 -21 3 -26 -1 -7 -3 -8 -1 -4 5 9 15 12 15 36 2z m-2440 -77 c0 -7 16 -21 35
-30 19 -9 35 -19 35 -23 0 -3 -16 -12 -35 -19 -23 -8 -37 -21 -41 -37 -8 -31
-22 -31 -34 1 -6 16 -25 32 -47 42 l-38 15 35 17 c22 10 41 29 50 49 13 31 15
32 27 16 7 -10 13 -24 13 -31z m2300 -7 c0 -2 -8 -10 -17 -17 -16 -13 -17 -12
-4 4 13 16 21 21 21 13z m-665 -15 c10 -17 112 -71 133 -71 23 0 72 -39 57
-46 -6 -2 -51 -31 -100 -64 -50 -33 -97 -60 -105 -60 -8 0 -26 10 -40 23 -49
43 -135 105 -159 112 -29 9 -22 15 59 48 36 15 76 36 90 47 27 21 55 26 65 11z
m382 -15 c18 -1 34 -6 35 -11 4 -14 -55 -15 -64 -1 -4 6 -10 7 -14 3 -4 -3 -3
-12 2 -20 5 -7 1 -5 -8 6 -10 10 -22 16 -28 12 -6 -3 2 -17 18 -31 l27 -26
-32 22 c-18 12 -33 26 -33 31 0 6 -5 7 -12 3 -7 -4 -8 -3 -4 4 4 6 13 9 21 5
8 -3 15 0 15 7 0 8 7 10 23 5 12 -4 37 -8 54 -9z m377 -5 c3 -5 -1 -14 -8 -20
-10 -9 -16 -9 -21 -1 -4 6 -3 10 2 9 20 -3 27 2 13 11 -9 6 -10 10 -3 10 6 0
14 -4 17 -9z m2531 -121 c-21 -22 -43 -40 -49 -40 -5 0 -27 19 -48 41 l-40 42
43 43 43 44 45 -45 45 -45 -39 -40z m-2842 90 c3 -11 1 -18 -4 -14 -5 3 -9 12
-9 20 0 20 7 17 13 -6z m232 -2 c0 -6 6 -13 14 -16 8 -3 11 0 7 6 -3 6 -2 13
3 16 19 12 20 -12 2 -28 -17 -16 -19 -16 -26 1 -11 25 -15 46 -7 38 4 -4 7
-12 7 -17z m-91 -29 c-9 -11 -22 -19 -28 -19 -6 0 -5 4 2 9 7 4 12 12 11 17
-3 18 1 23 16 17 14 -5 14 -8 -1 -24z m-120 -15 c3 -8 2 -12 -4 -9 -6 3 -10
10 -10 16 0 14 7 11 14 -7z m-59 -34 c10 -11 16 -20 13 -20 -3 0 -13 9 -23 20
-10 11 -16 20 -13 20 3 0 13 -9 23 -20z m135 16 c0 -2 -7 -7 -16 -10 -8 -3
-12 -2 -9 4 6 10 25 14 25 6z m66 -7 c4 -8 9 -7 15 2 4 7 12 10 16 5 4 -5 2
-11 -5 -13 -7 -3 -18 -10 -25 -17 -6 -6 -33 -28 -58 -49 -43 -35 -47 -36 -60
-20 -12 16 -12 17 2 5 13 -10 19 -10 28 2 9 11 9 15 -1 20 -7 3 -2 3 12 0 14
-4 22 -3 18 1 -4 5 6 18 23 31 28 20 29 23 12 33 -16 9 -16 10 -1 11 9 0 20
-5 24 -11z m-50 -24 c-11 -8 -22 -12 -25 -9 -6 6 19 24 34 24 6 -1 1 -7 -9
-15z m-1902 -138 c21 -16 15 -51 -11 -61 -33 -13 -57 36 -31 62 15 15 20 15
42 -1z m4326 -71 c0 -31 -18 -43 -36 -24 -19 18 -8 48 17 48 13 0 19 -7 19
-24z m-2406 -45 c33 -34 25 -39 -57 -33 l-59 4 34 29 c42 35 48 36 82 0z
m-1690 -30 c9 -14 -4 -41 -19 -41 -15 0 -28 27 -19 41 3 5 11 9 19 9 8 0 16
-4 19 -9z m1183 -47 c-3 -3 -12 -4 -19 -1 -8 3 -5 6 6 6 11 1 17 -2 13 -5z
m2611 -58 c6 -46 -51 -66 -67 -23 -13 33 5 59 37 55 21 -2 28 -9 30 -32z
m-3533 -56 c0 -36 -29 -33 -33 3 -3 23 0 28 15 25 12 -2 18 -12 18 -28z m932
4 c-3 -3 -12 -4 -19 -1 -8 3 -5 6 6 6 11 1 17 -2 13 -5z m-599 -116 c29 -29 7
-78 -35 -78 -32 0 -58 42 -43 69 12 24 58 29 78 9z m2792 -3 c26 -31 -13 -82
-44 -56 -16 14 -22 52 -9 64 11 12 40 8 53 -8z m-2351 -156 l24 -30 -34 -28
-33 -28 -28 29 c-16 17 -28 32 -28 33 0 11 57 60 65 57 6 -2 21 -17 34 -33z
m2036 11 c0 -29 -32 -41 -41 -16 -9 24 4 48 23 44 12 -2 18 -12 18 -28z m-555
-41 c0 -27 35 -59 65 -59 36 0 32 -27 -5 -35 -38 -8 -60 -30 -60 -60 0 -30
-18 -42 -26 -18 -22 68 -26 73 -66 79 -48 8 -45 25 7 40 21 6 41 17 43 25 15
45 23 60 32 54 5 -3 10 -15 10 -26z m-851 -76 c12 -23 -4 -53 -29 -53 -25 0
-41 29 -29 52 12 23 45 23 58 1z m354 -17 c3 -8 -1 -22 -8 -33 -13 -17 -15
-17 -31 -1 -9 9 -14 24 -11 32 8 20 43 21 50 2z"/>
<path d="M4493 7753 c9 -2 25 -2 35 0 9 3 1 5 -18 5 -19 0 -27 -2 -17 -5z"/>
<path d="M4435 7740 c-13 -6 -15 -9 -5 -9 8 0 22 4 30 9 18 12 2 12 -25 0z"/>
<path d="M4369 7693 c-13 -16 -12 -17 4 -4 16 13 21 21 13 21 -2 0 -10 -8 -17
-17z"/>
<path d="M3660 7670 c-9 -6 -10 -10 -3 -10 6 0 15 5 18 10 8 12 4 12 -15 0z"/>
<path d="M3479 7533 c-13 -16 -12 -17 4 -4 9 7 17 15 17 17 0 8 -8 3 -21 -13z"/>
<path d="M4248 7293 c6 -2 18 -2 25 0 6 3 1 5 -13 5 -14 0 -19 -2 -12 -5z"/>
<path d="M3350 6906 c0 -8 4 -17 9 -20 5 -4 7 3 4 14 -6 23 -13 26 -13 6z"/>
<path d="M3778 6859 c-18 -18 -24 -25 -13 -18 30 21 60 49 52 49 -4 0 -21 -14
-39 -31z"/>
<path d="M3462 6787 c-12 -7 -30 -24 -39 -37 l-16 -25 29 26 c16 15 38 31 49
37 11 6 16 11 10 11 -5 0 -20 -5 -33 -12z"/>
<path d="M2432 6623 c-24 -35 -84 -153 -77 -153 2 0 17 24 31 53 41 80 65 111
75 96 6 -10 8 -7 6 9 -2 29 -12 28 -35 -5z"/>
<path d="M2825 6607 c-34 -20 -77 -57 -67 -57 5 0 15 7 22 15 7 8 17 12 23 8
5 -3 7 -2 4 4 -4 6 14 17 41 26 32 11 39 16 22 16 -14 0 -34 -6 -45 -12z"/>
<path d="M2916 6598 c10 -14 21 -24 23 -22 3 3 -6 15 -18 27 l-24 22 19 -27z"/>
<path d="M2952 6540 c0 -14 2 -19 5 -12 2 6 2 18 0 25 -3 6 -5 1 -5 -13z"/>
<path d="M2729 6523 c-34 -42 -40 -55 -10 -24 17 18 30 35 28 37 -2 2 -10 -4
-18 -13z"/>
<path d="M3165 6439 c-4 -6 -5 -12 -2 -15 2 -3 7 2 10 11 7 17 1 20 -8 4z"/>
<path d="M2995 6254 c-14 -15 -25 -32 -25 -38 0 -6 7 -1 15 11 9 12 26 29 38
38 12 8 16 15 9 15 -7 0 -24 -12 -37 -26z"/>
<path d="M2650 6050 c0 -5 5 -10 11 -10 5 0 7 5 4 10 -3 6 -8 10 -11 10 -2 0
-4 -4 -4 -10z"/>
<path d="M2604 6013 c2 -9 8 -18 15 -19 6 -1 7 0 1 3 -5 2 -8 9 -5 13 3 5 1
11 -4 14 -5 4 -8 -2 -7 -11z"/>
<path d="M2926 6017 c3 -10 9 -15 12 -12 3 3 0 11 -7 18 -10 9 -11 8 -5 -6z"/>
<path d="M2750 5940 c-6 -11 -8 -20 -6 -20 3 0 10 9 16 20 6 11 8 20 6 20 -3
0 -10 -9 -16 -20z"/>
<path d="M2216 5885 c-9 -26 -7 -32 5 -12 6 10 9 21 6 23 -2 3 -7 -2 -11 -11z"/>
<path d="M5720 7736 c0 -2 8 -10 18 -17 15 -13 16 -12 3 4 -13 16 -21 21 -21
13z"/>
<path d="M5806 7622 c-14 -16 -26 -33 -26 -40 0 -10 60 -62 73 -62 9 0 57 53
57 63 0 9 -34 41 -61 57 -12 7 -23 2 -43 -18z"/>
<path d="M5917 7563 c-4 -3 -7 -11 -7 -17 0 -6 5 -5 12 2 6 6 9 14 7 17 -3 3
-9 2 -12 -2z"/>
<path d="M5021 6880 c-17 -17 -31 -36 -31 -41 0 -6 16 -26 36 -44 l36 -35 28
20 c56 40 54 52 -17 113 -20 17 -21 17 -52 -13z"/>
<path d="M4799 6739 l-21 -31 33 -34 c18 -19 35 -34 38 -33 4 0 19 16 35 35
l29 35 -28 29 c-36 38 -58 38 -86 -1z"/>
<path d="M5160 6683 l-22 -28 36 -33 c41 -36 61 -34 86 12 12 24 11 28 -10 51
-31 33 -63 32 -90 -2z"/>
<path d="M4634 6585 c-27 -27 -24 -44 14 -78 16 -15 24 -16 41 -8 46 25 47 76
1 101 -26 14 -28 13 -56 -15z"/>
<path d="M3486 5865 c3 -7 12 -16 19 -19 9 -3 12 0 9 9 -3 7 -12 16 -19 19 -9
3 -12 0 -9 -9z"/>
<path d="M3555 5869 c-4 -6 -5 -12 -2 -15 2 -3 7 2 10 11 7 17 1 20 -8 4z"/>
<path d="M6890 6140 c8 -5 20 -10 25 -10 6 0 3 5 -5 10 -8 5 -19 10 -25 10 -5
0 -3 -5 5 -10z"/>
<path d="M5157 6089 c7 -7 15 -10 18 -7 3 3 -2 9 -12 12 -14 6 -15 5 -6 -5z"/>
<path d="M4440 5890 c-19 -35 -3 -62 33 -58 29 3 32 6 32 38 0 31 -3 35 -27
38 -19 2 -30 -3 -38 -18z"/>
<path d="M2886 5294 c-21 -21 -20 -40 4 -64 23 -23 40 -25 62 -7 24 19 28 43
12 66 -18 25 -56 27 -78 5z"/>
<path d="M3090 5284 c-18 -32 -4 -58 34 -62 33 -4 56 13 56 42 0 50 -66 65
-90 20z"/>
<path d="M3872 5300 c-40 -38 -18 -90 38 -90 56 0 82 64 38 94 -30 21 -50 20
-76 -4z"/>
<path d="M4132 5308 c-29 -15 -40 -55 -19 -75 16 -17 74 -20 87 -6 43 46 -10
108 -68 81z"/>
<path d="M4342 5300 c-25 -11 -45 -52 -36 -75 8 -19 56 -45 83 -45 23 0 51 35
51 65 0 46 -51 74 -98 55z"/>
<path d="M3450 4475 c0 -21 9 -30 43 -45 44 -21 112 -26 121 -11 12 19 -7 40
-54 60 -27 12 -62 21 -79 21 -27 0 -31 -4 -31 -25z"/>
<path d="M2896 4418 c-39 -34 -43 -77 -12 -111 28 -31 54 -34 97 -12 33 17 53
57 44 86 -9 26 -53 59 -81 59 -12 0 -34 -10 -48 -22z"/>
<path d="M2722 4158 c-12 -16 -5 -63 13 -78 9 -7 16 -6 24 4 10 12 9 20 -3 38
-8 13 -15 27 -15 31 1 16 -8 18 -19 5z"/>
<path d="M2697 4123 c-4 -3 -7 -11 -7 -17 0 -6 5 -5 12 2 6 6 9 14 7 17 -3 3
-9 2 -12 -2z"/>
<path d="M7666 4591 c-15 -16 -15 -19 -2 -24 9 -4 18 -1 22 5 4 7 3 8 -4 4
-16 -9 -15 7 0 22 7 7 10 12 7 12 -3 0 -14 -8 -23 -19z"/>
<path d="M7675 4520 c-3 -5 -1 -10 4 -10 6 0 11 5 11 10 0 6 -2 10 -4 10 -3 0
-8 -4 -11 -10z"/>
<path d="M7643 4491 c-7 -12 -8 -22 -1 -32 8 -12 9 -12 5 1 -2 8 3 20 11 26 8
6 11 14 6 17 -6 3 -15 -2 -21 -12z"/>
<path d="M7571 4449 c-6 -18 -11 -41 -11 -51 0 -17 2 -17 14 -5 11 10 20 87
10 87 -1 0 -7 -14 -13 -31z"/>
<path d="M7626 4437 c3 -10 9 -15 12 -12 3 3 0 11 -7 18 -10 9 -11 8 -5 -6z"/>
<path d="M7621 4394 c0 -11 3 -14 6 -6 3 7 2 16 -1 19 -3 4 -6 -2 -5 -13z"/>
<path d="M7611 4354 c0 -11 3 -14 6 -6 3 7 2 16 -1 19 -3 4 -6 -2 -5 -13z"/>
<path d="M7566 4345 c-9 -26 -7 -32 5 -12 6 10 9 21 6 23 -2 3 -7 -2 -11 -11z"/>
<path d="M7561 4124 c0 -11 3 -14 6 -6 3 7 2 16 -1 19 -3 4 -6 -2 -5 -13z"/>
<path d="M6665 4340 c16 -16 34 -30 39 -30 6 0 -4 14 -23 30 -44 39 -53 39
-16 0z"/>
<path d="M5000 3893 c1 -11 26 -43 34 -43 14 0 5 26 -14 38 -11 7 -20 9 -20 5z"/>
<path d="M5027 3820 c3 -11 7 -20 9 -20 2 0 4 9 4 20 0 11 -4 20 -9 20 -5 0
-7 -9 -4 -20z"/>
<path d="M4950 3621 c0 -6 4 -13 10 -16 6 -3 7 1 4 9 -7 18 -14 21 -14 7z"/>
<path d="M4421 3489 c-18 -6 -31 -13 -28 -16 3 -3 22 0 42 7 35 12 50 8 50
-11 0 -5 3 -9 8 -9 4 0 9 0 12 0 3 0 1 9 -5 20 -12 22 -27 23 -79 9z"/>
<path d="M4520 2600 c0 -5 5 -10 11 -10 5 0 7 5 4 10 -3 6 -8 10 -11 10 -2 0
-4 -4 -4 -10z"/>
<path d="M4585 2580 c-3 -5 -1 -10 4 -10 6 0 11 5 11 10 0 6 -2 10 -4 10 -3 0
-8 -4 -11 -10z"/>
<path d="M4556 2534 c-6 -16 12 -60 21 -50 3 3 0 13 -7 22 -11 13 -11 17 -1
24 8 4 9 10 3 14 -5 3 -13 -1 -16 -10z"/>
<path d="M5272 2768 c-29 -29 -3 -72 40 -66 19 2 23 9 23 38 0 30 -4 35 -25
38 -14 2 -31 -3 -38 -10z"/>
<path d="M4255 2340 c3 -5 8 -10 11 -10 2 0 4 5 4 10 0 6 -5 10 -11 10 -5 0
-7 -4 -4 -10z"/>
</g>
</svg>
